# xmcd
#
# Track frame offsets: 
#        150
#        18835
#        33693
#        58069
#        78762
#        94691
#        110896
#        131780
#        149583
#        166950
#        193020
#        210626
#        226628
#        243077
#        262105
#
# Disc length: 3694 seconds
#
# Revision: 8
# Processed by: cddbd v1.5.2PL0 Copyright (c) Steve Scherf et al.
# Submitted via: ExactAudioCopy v0.99pb5
#
DISCID=d00e6c0f
DTITLE=Various Artist - Body and Soul - TL BAS-01 - Love Serenade - CD 1
DYEAR=2004
DGENRE=Pop
TTITLE0=Marvin Gaye - Sexual healing
TTITLE1=Stylistics - Betcha by golly, wow
TTITLE2=Luther Vandross - Here and now
TTITLE3=Champaign - How 'bout us
TTITLE4=Peabo Bryson and Roberta Flack - Tonight, I celebrate my love
TTITLE5=Heatwave - Always and forever
TTITLE6=Manhattans - Shining star
TTITLE7=Kool and The Gang - Cherish
TTITLE8=Womack and Womack - Teardrops
TTITLE9=Chaka Khan - I feel for you
TTITLE10=Pointer Sisters - Slow hand
TTITLE11=Barry White - What am I gonna do with you
TTITLE12=Earth, Wind and Fire - After the love has gone
TTITLE13=Dionne Warwick - Heartbreaker
TTITLE14=Harold Melvin and The Blue Notes - If you don't know me by now
EXTD=Rev. #4 submitted by cbs3000 on Dec., 18, 2004
EXTT0=
EXTT1=
EXTT2=
EXTT3=
EXTT4=
EXTT5=
EXTT6=
EXTT7=
EXTT8=
EXTT9=
EXTT10=
EXTT11=
EXTT12=
EXTT13=
EXTT14=
PLAYORDER=
